<svg width="41" height="41" viewBox="0 0 41 41" fill="none" xmlns="http://www.w3.org/2000/svg">
<path d="M20.6755 15.1578C17.8345 15.1578 15.516 17.4762 15.516 20.3172C15.516 23.1582 17.8345 25.4767 20.6755 25.4767C23.5165 25.4767 25.8349 23.1582 25.8349 20.3172C25.8349 17.4762 23.5165 15.1578 20.6755 15.1578ZM36.15 20.3172C36.15 18.1807 36.1693 16.0635 36.0493 13.9308C35.9294 11.4537 35.3643 9.25518 33.5528 7.44375C31.7375 5.62846 29.5429 5.06723 27.0658 4.94724C24.9292 4.82726 22.812 4.84661 20.6794 4.84661C18.5428 4.84661 16.4256 4.82726 14.2929 4.94724C11.8158 5.06723 9.6173 5.63233 7.80588 7.44375C5.99058 9.25905 5.42935 11.4537 5.30937 13.9308C5.18938 16.0674 5.20873 18.1846 5.20873 20.3172C5.20873 22.4499 5.18938 24.571 5.30937 26.7037C5.42935 29.1808 5.99446 31.3793 7.80588 33.1907C9.62117 35.006 11.8158 35.5672 14.2929 35.6872C16.4295 35.8072 18.5467 35.7879 20.6794 35.7879C22.8159 35.7879 24.9331 35.8072 27.0658 35.6872C29.5429 35.5672 31.7414 35.0021 33.5528 33.1907C35.3681 31.3754 35.9294 29.1808 36.0493 26.7037C36.1732 24.571 36.15 22.4538 36.15 20.3172ZM20.6755 28.2557C16.2824 28.2557 12.737 24.7103 12.737 20.3172C12.737 15.9241 16.2824 12.3787 20.6755 12.3787C25.0686 12.3787 28.614 15.9241 28.614 20.3172C28.614 24.7103 25.0686 28.2557 20.6755 28.2557ZM28.9391 13.9076C27.9134 13.9076 27.0851 13.0793 27.0851 12.0536C27.0851 11.0279 27.9134 10.1996 28.9391 10.1996C29.9648 10.1996 30.7931 11.0279 30.7931 12.0536C30.7934 12.2971 30.7457 12.5384 30.6526 12.7634C30.5596 12.9885 30.423 13.193 30.2508 13.3652C30.0786 13.5375 29.8741 13.674 29.649 13.7671C29.4239 13.8601 29.1827 13.9079 28.9391 13.9076Z" fill="#656579"/>
<path d="M39.254 20.3172C39.254 30.5779 30.936 38.8959 20.6753 38.8959C10.4146 38.8959 2.09662 30.5779 2.09662 20.3172C2.09662 10.0565 10.4146 1.73853 20.6753 1.73853C30.936 1.73853 39.254 10.0565 39.254 20.3172ZM6.59422 20.3172C6.59422 28.094 12.8985 34.3983 20.6753 34.3983C28.4521 34.3983 34.7564 28.094 34.7564 20.3172C34.7564 12.5404 28.4521 6.23613 20.6753 6.23613C12.8985 6.23613 6.59422 12.5404 6.59422 20.3172Z" fill="#656579"/>
</svg>
